<svg xmlns="http://www.w3.org/2000/svg" xmlns:xlink="http://www.w3.org/1999/xlink" version="1.1" style="" xml:space="preserve" width="484.8" height="484.8"><rect id="backgroundrect" width="100%" height="100%" x="0" y="0" fill="none" stroke="none"/>



















<g class="currentLayer" style=""><title>Layer 1</title><circle style="" cx="242.39999389648438" cy="242.39999389648438" r="242.39999389648438" id="svg_1" class="" fill="#5388fc" fill-opacity="1"/><path style="" d="M0,242.4C0,376,108,484,242.4,484C376,484,484,376,484,242.4" id="svg_2" class="" fill="#3351e8" fill-opacity="1"/><polygon style="fill:#EBFFF6;" points="394.4,202.4 282.4,202.4 282.4,90.4 202.4,90.4 202.4,202.4 90.4,202.4 90.4,282.4   202.4,282.4 202.4,394.4 282.4,394.4 282.4,282.4 394.4,282.4 " id="svg_3" class="selected"/><polygon style="fill:#D6EAE0;" points="282.4,200.8 200.8,282.4 202.4,282.4 202.4,394.4 282.4,394.4 282.4,282.4 394.4,282.4   394.4,202.4 282.4,202.4 " id="svg_4"/><g id="svg_5">
</g><g id="svg_6">
</g><g id="svg_7">
</g><g id="svg_8">
</g><g id="svg_9">
</g><g id="svg_10">
</g><g id="svg_11">
</g><g id="svg_12">
</g><g id="svg_13">
</g><g id="svg_14">
</g><g id="svg_15">
</g><g id="svg_16">
</g><g id="svg_17">
</g><g id="svg_18">
</g><g id="svg_19">
</g></g></svg>